<svg xmlns="http://www.w3.org/2000/svg" width="784.8129" height="784.8129" viewBox="0 0 784.8129 784.8129"><defs><style>.a{fill:#fff;}.b{fill:#75a928;}.c{fill:#bc1142;}</style></defs><title>PiSwitch</title><circle class="a" cx="392.40645" cy="392.40645" r="392.40645"/><path class="b" d="M173.96726,263.47119a19.50323,19.50323,0,0,0-17.19794-28.75358H113.24474A19.93565,19.93565,0,0,0,95.08588,246.187a351.92129,351.92129,0,0,0-31.895,146.21944c0,30.49062,3.84366,84.17874,32.88059,146.42887a19.83452,19.83452,0,0,0,17.9987,11.26h42.92093a19.51064,19.51064,0,0,0,17.18562-28.79052c-61.32618-114.965-20.58579-219.47083-.20943-257.83357Z"/><path class="c" d="M689.66542,246.16237a19.91627,19.91627,0,0,0-18.14651-11.44476H627.88347a19.47305,19.47305,0,0,0-17.27188,28.6427c22.50764,42.24336,59.65071,147.11876.345,257.75965a19.5538,19.5538,0,0,0,17.13631,28.97533h43.40137a19.91621,19.91621,0,0,0,18.14651-11.44475,350.486,350.486,0,0,0,.02466-292.48817Z"/><path d="M300.16109,135.54583c-2.59784.08062-5.39563,1.04029-8.56845,3.544-7.77133-2.99764-15.30806-4.03906-22.04916,2.06361-10.40334-1.35-13.78868,1.43608-16.35183,4.688-2.28435-.04728-17.09658-2.34861-23.88846,7.78338-17.06989-2.01941-22.46406,10.04015-16.35183,21.28653-3.48617,5.39692-7.09844,10.72875,1.05424,21.01736-2.884,5.73037-1.09636,11.94668,5.69734,19.46966-1.7929,8.05531,1.73133,13.73884,8.05254,18.16869-1.18224,11.02328,10.1088,17.43292,13.48073,19.7164,1.29463,6.42315,3.99292,12.484,16.89015,15.83592,2.12693,9.57233,9.87807,11.22533,17.38363,13.234-24.80771,14.41977-46.08167,33.39282-45.93764,79.94224l-3.63373,6.48241c-28.44607,17.3-54.03795,72.90177-14.01906,118.0965,2.61405,14.14619,6.998,24.30672,10.90122,35.55232,5.83827,45.31357,43.94051,66.53175,53.99017,69.041,14.72626,11.21748,30.41084,21.86109,51.635,29.31664,20.0081,20.63566,41.684,28.5003,63.47827,28.48672.31952-.00022.64494.00359.96451,0,21.79426.01358,43.47017-7.85106,63.47827-28.48672,21.22415-7.45555,36.90871-18.09916,51.635-29.31664,10.04966-2.50928,48.15189-23.72746,53.99017-69.041,3.90321-11.2456,8.28715-21.40613,10.90122-35.55232,40.01887-45.19473,14.427-100.79646-14.01905-118.0965l-3.63374-6.48241c.144-46.54942-21.12994-65.52247-45.93764-79.94224,7.50556-2.00866,15.2567-3.66166,17.38363-13.234,12.89724-3.35187,15.59552-9.41277,16.89015-15.83592,3.37194-2.28348,14.663-8.69312,13.48073-19.7164,6.32123-4.42985,9.84545-10.11338,8.05254-18.16869,6.79372-7.523,8.58137-13.73929,5.69734-19.46966,8.1527-10.28861,4.54042-15.62044,1.05424-21.01736,6.11221-11.24638.71808-23.30594-16.35183-21.28653-6.79188-10.132-21.6041-7.83066-23.88846-7.78338-2.56315-3.25189-5.94848-6.03793-16.35183-4.688-6.7411-6.10267-14.27783-5.06125-22.04916-2.06361-9.23-7.28356-15.34048-1.44509-22.31833.76264-11.17853-3.65188-13.73322,1.35007-19.22293,3.387-12.18442-2.57543-15.88838,3.03155-21.73514,8.94977l-6.79644-.13459c-18.38261,10.83347-27.515,32.89242-30.75219,44.23292-3.23864-11.34228-12.35039-33.40136-30.72976-44.23292l-6.79644.13459c-5.84674-5.91822-9.55072-11.5252-21.73514-8.94977-5.48971-2.03693-8.0444-7.03888-19.22292-3.387C309.33176,138.40366,305.12061,135.39192,300.16109,135.54583Z"/><path class="b" d="M263.56662,183.20564c48.77118,25.14465,77.12275,45.48469,92.65561,62.80856-7.95464,31.88185-49.45213,33.33682-64.62534,32.44243,3.10683-1.44613,5.69905-3.17815,6.61826-5.83964-3.80744-2.70587-17.30764-.28509-26.73257-5.58009,3.62051-.75007,5.314-1.48079,7.00756-4.15263-8.90451-2.84-18.49608-5.28744-24.13717-9.99227,3.04427.03761,5.88659.681,9.86249-2.07632-7.9757-4.29818-16.48666-7.70425-23.099-14.27467,4.12378-.10094,8.56985-.04077,9.8625-1.55723a88.92563,88.92563,0,0,1-18.55707-15.0533c5.7709.69662,8.208.09674,9.603-.90839-5.51811-5.6519-12.50189-10.42438-15.83191-17.38914,4.28484,1.47681,8.20507,2.04212,11.03043-.12977-1.87509-4.23018-9.90919-6.72528-14.53421-16.61053,4.51076.4374,9.29491.98415,10.25181,0-2.09756-8.53332-5.69013-13.32911-9.21365-18.29754,9.65411-.14336,24.28074.03757,23.6181-.77862l-5.96941-6.09918c9.42986-2.53894,19.07894.40782,26.08372,2.5954,3.14519-2.48184-.0557-5.62017-3.89309-8.82434a94.76721,94.76721,0,0,1,21.80131,5.45032c3.49727-3.15773-2.271-6.31546-5.061-9.47319,12.38117,2.349,17.62653,5.64938,22.83948,8.95411,3.78221-3.62534.21653-6.70639-2.33586-9.8625,9.33515,3.45756,14.14361,7.92105,19.20593,12.32813,1.71634-2.3163,4.36044-4.0141,1.16793-9.603a48.69713,48.69713,0,0,1,15.31284,13.36628c4.10091-2.61123,2.44321-6.18222,2.46562-9.47319,6.88824,5.60332,11.25965,11.56619,16.61053,17.38914,1.07788-.78484,2.02169-3.44655,2.85492-7.65641,16.43376,15.9431,39.65415,56.10007,5.96941,72.02221C335.745,213.28165,301.509,196.09784,263.56662,183.20564Z"/><path class="b" d="M522.3484,183.20564c-48.77117,25.14465-77.12275,45.48469-92.6556,62.80856,7.95463,31.88185,49.45212,33.33682,64.62533,32.44243-3.10684-1.44613-5.699-3.17815-6.61826-5.83964,3.80744-2.70587,17.30764-.28509,26.73256-5.58009-3.62051-.75007-5.314-1.48079-7.00755-4.15263,8.9045-2.84,18.49608-5.28744,24.13717-9.99227-3.04428.03761-5.8866.681-9.86249-2.07632,7.9757-4.29818,16.48667-7.70425,23.099-14.27467-4.12377-.10094-8.56984-.04077-9.86249-1.55723a88.92511,88.92511,0,0,0,18.55707-15.0533c-5.7709.69662-8.208.09674-9.603-.90839,5.5181-5.6519,12.50191-10.42438,15.83192-17.38914-4.28484,1.47681-8.20507,2.04212-11.03043-.12977,1.87509-4.23018,9.90917-6.72528,14.53423-16.61053-4.51076.4374-9.29492.98415-10.25181,0,2.09758-8.53332,5.69014-13.32911,9.21365-18.29754-9.65411-.14336-24.28073.03758-23.61809-.77861l5.9694-6.09918c-9.42987-2.53895-19.07895.40781-26.08372,2.59539-3.1452-2.48184.0557-5.62016,3.89309-8.82434a94.76734,94.76734,0,0,0-21.80131,5.45033c-3.49728-3.15773,2.271-6.31546,5.061-9.47319-12.38117,2.349-17.62653,5.64938-22.83949,8.95411-3.78221-3.62534-.21653-6.70639,2.33586-9.8625-9.33514,3.45756-14.14361,7.92105-19.20593,12.32812-1.71635-2.3163-4.36045-4.01409-1.16792-9.603a48.69715,48.69715,0,0,0-15.31284,13.36628c-4.1009-2.61122-2.44321-6.18221-2.46562-9.47319-6.88824,5.60333-11.25964,11.5662-16.61054,17.38915-1.07787-.78484-2.0217-3.44655-2.85493-7.65642-16.43375,15.9431-39.65417,56.10007-5.96941,72.02221,28.65271-23.64866,62.88871-40.83247,100.8311-53.72467Z"/><path class="c" d="M452.0218,507.85943c0,29.75177-26.15546,53.87034-58.41982,53.87034s-58.41983-24.11857-58.41983-53.87034,26.15545-53.87032,58.41983-53.87032S452.0218,478.10767,452.0218,507.85943Z"/><path class="c" d="M359.79317,353.96935c24.20624,15.85906,28.56986,51.807,9.74646,80.2919s-53.7058,38.7203-77.912,22.86123h0c-24.20624-15.85906-28.56986-51.807-9.74646-80.2919s53.7058-38.7203,77.912-22.86123Z"/><path class="c" d="M425.13391,351.09825c-24.20624,15.85906-28.56986,51.807-9.74646,80.2919s53.7058,38.72029,77.912,22.86123h0c24.20624-15.85906,28.56986-51.807,9.74646-80.29191s-53.7058-38.72029-77.912-22.86122Z"/><path class="c" d="M238.81659,379.89925c26.13723-7.00328,8.8226,108.12319-12.44148,98.67674C202.98513,459.76117,195.45114,404.66275,238.81659,379.89925Z"/><path class="c" d="M540.83357,378.4637c-26.13723-7.00328-8.82261,108.12319,12.44147,98.67674C576.665,458.32562,584.199,403.2272,540.83357,378.4637Z"/><path class="c" d="M452.03994,292.73661c45.10132-7.61568,82.62739,19.18061,81.1168,68.08672-1.48359,18.7491-97.7314-65.29537-81.1168-68.08673Z"/><path class="c" d="M327.42562,291.30106c-45.10133-7.61568-82.62741,19.18061-81.11681,68.08672C247.7924,378.13688,344.04021,294.09242,327.42562,291.30106Z"/><path class="c" d="M392.21172,279.89007c-26.91844-.70018-52.75326,19.97869-52.81505,31.9729-.07509,14.5739,21.28291,29.4953,52.99857,29.87408,32.38822.232,53.05482-11.94415,53.15924-26.98412.11831-17.04-29.45664-35.12609-53.34276-34.86285Z"/><path class="c" d="M393.85546,578.74385c23.46942-1.02435,54.96066,7.5596,55.02237,18.9464.38953,11.05749-28.56,36.03992-56.57963,35.55692-29.01772,1.25173-57.47162-23.76957-57.09868-32.44245C334.76523,588.08865,370.53275,578.16035,393.85546,578.74385Z"/><path class="c" d="M307.16926,511.26358c16.70916,20.13053,24.32588,55.49766,10.38158,65.923-13.19212,7.95857-45.22868,4.68105-67.99935-28.03026-15.35685-27.449-13.37761-55.38113-2.5954-63.58719C263.0805,475.7469,287.99378,489.01377,307.16926,511.26358Z"/><path class="c" d="M477.19748,504.88119c-18.07849,21.17556-28.14562,59.79752-14.95691,72.23895,12.61007,9.66386,46.461,8.313,71.4658-26.38237,18.15684-23.30238,12.07308-62.21839,1.70167-72.54923C520.00165,466.27193,497.885,481.52253,477.19748,504.88119Z"/></svg>